<mxfile host="app.diagrams.net" modified="2023-12-21T07:07:23.412Z" agent="Mozilla/5.0 (Windows NT 10.0; Win64; x64) AppleWebKit/537.36 (KHTML, like Gecko) Chrome/120.0.0.0 Safari/537.36" etag="SmCGzPcOW5ywcqGVODp8" version="22.1.11" type="device" pages="4">
  <diagram id="3ts04wCIwDiTk_xwi9jc" name="로그인">
    <mxGraphModel dx="1400" dy="753" grid="0" gridSize="10" guides="1" tooltips="1" connect="1" arrows="1" fold="1" page="1" pageScale="1" pageWidth="850" pageHeight="1100" math="0" shadow="0">
      <root>
        <mxCell id="0" />
        <mxCell id="1" parent="0" />
        <mxCell id="qIqZFkYQS4u7kpdyAN0M-1" value="JustTalk" style="whiteSpace=wrap;html=1;rounded=0;shadow=0;labelBackgroundColor=none;strokeWidth=1;fontFamily=Verdana;fontSize=28;align=center;comic=1;" vertex="1" parent="1">
          <mxGeometry x="307" y="176" width="190" height="50" as="geometry" />
        </mxCell>
        <mxCell id="qIqZFkYQS4u7kpdyAN0M-2" value="" style="rounded=0;whiteSpace=wrap;html=1;" vertex="1" parent="1">
          <mxGeometry x="205" y="315" width="421" height="60" as="geometry" />
        </mxCell>
        <mxCell id="qIqZFkYQS4u7kpdyAN0M-3" value="" style="rounded=0;whiteSpace=wrap;html=1;" vertex="1" parent="1">
          <mxGeometry x="205" y="444" width="421" height="60" as="geometry" />
        </mxCell>
        <mxCell id="qIqZFkYQS4u7kpdyAN0M-4" value="log in" style="rounded=1;whiteSpace=wrap;html=1;" vertex="1" parent="1">
          <mxGeometry x="345" y="560" width="120" height="32" as="geometry" />
        </mxCell>
        <mxCell id="qIqZFkYQS4u7kpdyAN0M-6" value="ID" style="text;html=1;strokeColor=none;fillColor=none;align=center;verticalAlign=middle;whiteSpace=wrap;rounded=0;fontSize=19;" vertex="1" parent="1">
          <mxGeometry x="205" y="269" width="60" height="30" as="geometry" />
        </mxCell>
        <mxCell id="qIqZFkYQS4u7kpdyAN0M-7" value="PASSWORD" style="text;html=1;strokeColor=none;fillColor=none;align=center;verticalAlign=middle;whiteSpace=wrap;rounded=0;fontSize=19;" vertex="1" parent="1">
          <mxGeometry x="242" y="407" width="60" height="30" as="geometry" />
        </mxCell>
      </root>
    </mxGraphModel>
  </diagram>
  <diagram name="tab1" id="03018318-947c-dd8e-b7a3-06fadd420f32">
    <mxGraphModel dx="1500" dy="807" grid="0" gridSize="10" guides="1" tooltips="1" connect="1" arrows="1" fold="1" page="1" pageScale="1" pageWidth="850" pageHeight="1100" background="#ffffff" math="0" shadow="0">
      <root>
        <mxCell id="0" />
        <mxCell id="1" parent="0" />
        <mxCell id="677b7b8949515195-1" value="" style="whiteSpace=wrap;html=1;rounded=0;shadow=0;labelBackgroundColor=none;strokeColor=#000000;strokeWidth=1;fillColor=none;fontFamily=Verdana;fontSize=12;fontColor=#000000;align=center;comic=1;" parent="1" vertex="1">
          <mxGeometry x="20" y="20" width="822" height="1063" as="geometry" />
        </mxCell>
        <mxCell id="677b7b8949515195-2" value="JustTalk" style="whiteSpace=wrap;html=1;rounded=0;shadow=0;labelBackgroundColor=none;strokeWidth=1;fontFamily=Verdana;fontSize=28;align=center;comic=1;" parent="1" vertex="1">
          <mxGeometry x="302" y="62" width="190" height="50" as="geometry" />
        </mxCell>
        <mxCell id="677b7b8949515195-8" value="" style="whiteSpace=wrap;html=1;rounded=0;shadow=0;labelBackgroundColor=none;strokeWidth=1;fillColor=none;fontFamily=Verdana;fontSize=12;align=center;comic=1;" parent="1" vertex="1">
          <mxGeometry x="37" y="167" width="783" height="777" as="geometry" />
        </mxCell>
        <mxCell id="677b7b8949515195-9" value="" style="line;strokeWidth=1;html=1;rounded=0;shadow=0;labelBackgroundColor=none;fillColor=none;fontFamily=Verdana;fontSize=14;fontColor=#000000;align=center;comic=1;" parent="1" vertex="1">
          <mxGeometry x="20" y="140" width="821" height="10" as="geometry" />
        </mxCell>
        <mxCell id="677b7b8949515195-10" value="" style="whiteSpace=wrap;html=1;rounded=0;shadow=0;labelBackgroundColor=none;strokeWidth=1;fillColor=none;fontFamily=Verdana;fontSize=12;align=center;comic=1;" parent="1" vertex="1">
          <mxGeometry x="45.5" y="986" width="771" height="57" as="geometry" />
        </mxCell>
        <mxCell id="677b7b8949515195-11" value="친구목록" style="text;html=1;points=[];align=left;verticalAlign=top;spacingTop=-4;fontSize=14;fontFamily=Verdana" parent="1" vertex="1">
          <mxGeometry x="143" y="1004.5" width="60" height="20" as="geometry" />
        </mxCell>
        <mxCell id="677b7b8949515195-12" value="대화목록" style="text;html=1;points=[];align=left;verticalAlign=top;spacingTop=-4;fontSize=14;fontFamily=Verdana" parent="1" vertex="1">
          <mxGeometry x="364.5" y="1007" width="60" height="20" as="geometry" />
        </mxCell>
        <mxCell id="677b7b8949515195-13" value="설정" style="text;html=1;points=[];align=left;verticalAlign=top;spacingTop=-4;fontSize=14;fontFamily=Verdana" parent="1" vertex="1">
          <mxGeometry x="719" y="1007" width="60" height="20" as="geometry" />
        </mxCell>
        <mxCell id="677b7b8949515195-27" value="name 1" style="text;html=1;points=[];align=left;verticalAlign=top;spacingTop=-4;fontSize=20;fontFamily=Verdana;strokeWidth=1;" parent="1" vertex="1">
          <mxGeometry x="140" y="227" width="170" height="20" as="geometry" />
        </mxCell>
        <mxCell id="677b7b8949515195-28" value="name 2" style="text;html=1;points=[];align=left;verticalAlign=top;spacingTop=-4;fontSize=20;fontFamily=Verdana;strokeWidth=1;" parent="1" vertex="1">
          <mxGeometry x="140" y="281" width="170" height="20" as="geometry" />
        </mxCell>
        <mxCell id="677b7b8949515195-29" value="name&amp;nbsp;3" style="text;html=1;points=[];align=left;verticalAlign=top;spacingTop=-4;fontSize=20;fontFamily=Verdana;strokeWidth=1;" parent="1" vertex="1">
          <mxGeometry x="140" y="335" width="170" height="20" as="geometry" />
        </mxCell>
        <mxCell id="677b7b8949515195-30" value="name 4" style="text;html=1;points=[];align=left;verticalAlign=top;spacingTop=-4;fontSize=20;fontFamily=Verdana;strokeWidth=1;" parent="1" vertex="1">
          <mxGeometry x="140" y="399" width="170" height="20" as="geometry" />
        </mxCell>
        <mxCell id="677b7b8949515195-31" value="name 7" style="text;html=1;points=[];align=left;verticalAlign=top;spacingTop=-4;fontSize=20;fontFamily=Verdana;strokeWidth=1;" parent="1" vertex="1">
          <mxGeometry x="140" y="608" width="170" height="20" as="geometry" />
        </mxCell>
        <mxCell id="677b7b8949515195-39" value="name 5" style="text;html=1;points=[];align=left;verticalAlign=top;spacingTop=-4;fontSize=20;fontFamily=Verdana;strokeWidth=1;" parent="1" vertex="1">
          <mxGeometry x="140" y="459" width="170" height="20" as="geometry" />
        </mxCell>
        <mxCell id="677b7b8949515195-40" value="name 6" style="text;html=1;points=[];align=left;verticalAlign=top;spacingTop=-4;fontSize=20;fontFamily=Verdana;strokeWidth=1;" parent="1" vertex="1">
          <mxGeometry x="140" y="531" width="170" height="20" as="geometry" />
        </mxCell>
        <mxCell id="0s_ntzK8tvSvypEEweLT-1" value="name 8" style="text;html=1;points=[];align=left;verticalAlign=top;spacingTop=-4;fontSize=20;fontFamily=Verdana;strokeWidth=1;" vertex="1" parent="1">
          <mxGeometry x="140" y="664" width="170" height="20" as="geometry" />
        </mxCell>
        <mxCell id="0s_ntzK8tvSvypEEweLT-2" value="message 1" style="text;html=1;points=[];align=left;verticalAlign=top;spacingTop=-4;fontSize=20;fontFamily=Verdana;strokeWidth=1;" vertex="1" parent="1">
          <mxGeometry x="400" y="231" width="170" height="20" as="geometry" />
        </mxCell>
        <mxCell id="0s_ntzK8tvSvypEEweLT-3" value="message 2" style="text;html=1;points=[];align=left;verticalAlign=top;spacingTop=-4;fontSize=20;fontFamily=Verdana;strokeWidth=1;" vertex="1" parent="1">
          <mxGeometry x="400" y="285" width="170" height="20" as="geometry" />
        </mxCell>
        <mxCell id="0s_ntzK8tvSvypEEweLT-4" value="message&amp;nbsp;3" style="text;html=1;points=[];align=left;verticalAlign=top;spacingTop=-4;fontSize=20;fontFamily=Verdana;strokeWidth=1;" vertex="1" parent="1">
          <mxGeometry x="400" y="339" width="170" height="20" as="geometry" />
        </mxCell>
        <mxCell id="0s_ntzK8tvSvypEEweLT-5" value="message&amp;nbsp;4" style="text;html=1;points=[];align=left;verticalAlign=top;spacingTop=-4;fontSize=20;fontFamily=Verdana;strokeWidth=1;" vertex="1" parent="1">
          <mxGeometry x="400" y="403" width="170" height="20" as="geometry" />
        </mxCell>
        <mxCell id="0s_ntzK8tvSvypEEweLT-6" value="message&amp;nbsp;7" style="text;html=1;points=[];align=left;verticalAlign=top;spacingTop=-4;fontSize=20;fontFamily=Verdana;strokeWidth=1;" vertex="1" parent="1">
          <mxGeometry x="400" y="612" width="170" height="20" as="geometry" />
        </mxCell>
        <mxCell id="0s_ntzK8tvSvypEEweLT-7" value="message&amp;nbsp;5" style="text;html=1;points=[];align=left;verticalAlign=top;spacingTop=-4;fontSize=20;fontFamily=Verdana;strokeWidth=1;" vertex="1" parent="1">
          <mxGeometry x="400" y="463" width="170" height="20" as="geometry" />
        </mxCell>
        <mxCell id="0s_ntzK8tvSvypEEweLT-8" value="message&amp;nbsp;6" style="text;html=1;points=[];align=left;verticalAlign=top;spacingTop=-4;fontSize=20;fontFamily=Verdana;strokeWidth=1;" vertex="1" parent="1">
          <mxGeometry x="400" y="535" width="170" height="20" as="geometry" />
        </mxCell>
        <mxCell id="0s_ntzK8tvSvypEEweLT-9" value="message&amp;nbsp;8" style="text;html=1;points=[];align=left;verticalAlign=top;spacingTop=-4;fontSize=20;fontFamily=Verdana;strokeWidth=1;" vertex="1" parent="1">
          <mxGeometry x="400" y="668" width="170" height="20" as="geometry" />
        </mxCell>
        <mxCell id="0s_ntzK8tvSvypEEweLT-12" value="" style="ellipse;whiteSpace=wrap;html=1;aspect=fixed;labelBackgroundColor=none;labelBorderColor=none;fillColor=#000000;" vertex="1" parent="1">
          <mxGeometry x="75" y="232" width="18" height="18" as="geometry" />
        </mxCell>
        <mxCell id="0s_ntzK8tvSvypEEweLT-14" value="" style="ellipse;whiteSpace=wrap;html=1;aspect=fixed;labelBackgroundColor=none;labelBorderColor=none;fillColor=#000000;" vertex="1" parent="1">
          <mxGeometry x="75" y="285" width="18" height="18" as="geometry" />
        </mxCell>
        <mxCell id="0s_ntzK8tvSvypEEweLT-15" value="" style="ellipse;whiteSpace=wrap;html=1;aspect=fixed;labelBackgroundColor=none;labelBorderColor=none;fillColor=#000000;" vertex="1" parent="1">
          <mxGeometry x="75" y="345" width="18" height="18" as="geometry" />
        </mxCell>
        <mxCell id="0s_ntzK8tvSvypEEweLT-16" value="" style="ellipse;whiteSpace=wrap;html=1;aspect=fixed;labelBackgroundColor=none;labelBorderColor=none;fillColor=#000000;" vertex="1" parent="1">
          <mxGeometry x="75" y="398" width="18" height="18" as="geometry" />
        </mxCell>
        <mxCell id="0s_ntzK8tvSvypEEweLT-17" value="" style="ellipse;whiteSpace=wrap;html=1;aspect=fixed;labelBackgroundColor=none;labelBorderColor=none;fillColor=#000000;" vertex="1" parent="1">
          <mxGeometry x="72" y="467" width="18" height="18" as="geometry" />
        </mxCell>
        <mxCell id="0s_ntzK8tvSvypEEweLT-18" value="" style="ellipse;whiteSpace=wrap;html=1;aspect=fixed;labelBackgroundColor=none;labelBorderColor=none;fillColor=#000000;" vertex="1" parent="1">
          <mxGeometry x="72" y="520" width="18" height="18" as="geometry" />
        </mxCell>
        <mxCell id="0s_ntzK8tvSvypEEweLT-19" value="" style="ellipse;whiteSpace=wrap;html=1;aspect=fixed;labelBackgroundColor=none;labelBorderColor=none;fillColor=#000000;" vertex="1" parent="1">
          <mxGeometry x="75" y="613" width="18" height="18" as="geometry" />
        </mxCell>
        <mxCell id="0s_ntzK8tvSvypEEweLT-20" value="" style="ellipse;whiteSpace=wrap;html=1;aspect=fixed;labelBackgroundColor=none;labelBorderColor=none;fillColor=#000000;" vertex="1" parent="1">
          <mxGeometry x="75" y="666" width="18" height="18" as="geometry" />
        </mxCell>
        <mxCell id="0s_ntzK8tvSvypEEweLT-21" value="채팅하기" style="rounded=1;whiteSpace=wrap;html=1;" vertex="1" parent="1">
          <mxGeometry x="706.5" y="227" width="85" height="34" as="geometry" />
        </mxCell>
        <mxCell id="0s_ntzK8tvSvypEEweLT-22" value="채팅하기" style="rounded=1;whiteSpace=wrap;html=1;" vertex="1" parent="1">
          <mxGeometry x="706.5" y="285" width="85" height="34" as="geometry" />
        </mxCell>
        <mxCell id="0s_ntzK8tvSvypEEweLT-28" value="채팅하기" style="rounded=1;whiteSpace=wrap;html=1;" vertex="1" parent="1">
          <mxGeometry x="706.5" y="339" width="85" height="34" as="geometry" />
        </mxCell>
        <mxCell id="0s_ntzK8tvSvypEEweLT-29" value="채팅하기" style="rounded=1;whiteSpace=wrap;html=1;" vertex="1" parent="1">
          <mxGeometry x="706.5" y="397" width="85" height="34" as="geometry" />
        </mxCell>
        <mxCell id="0s_ntzK8tvSvypEEweLT-30" value="채팅하기" style="rounded=1;whiteSpace=wrap;html=1;" vertex="1" parent="1">
          <mxGeometry x="706.5" y="458" width="85" height="34" as="geometry" />
        </mxCell>
        <mxCell id="0s_ntzK8tvSvypEEweLT-31" value="채팅하기" style="rounded=1;whiteSpace=wrap;html=1;" vertex="1" parent="1">
          <mxGeometry x="706.5" y="516" width="85" height="34" as="geometry" />
        </mxCell>
        <mxCell id="0s_ntzK8tvSvypEEweLT-32" value="채팅하기" style="rounded=1;whiteSpace=wrap;html=1;" vertex="1" parent="1">
          <mxGeometry x="706.5" y="596" width="85" height="34" as="geometry" />
        </mxCell>
        <mxCell id="0s_ntzK8tvSvypEEweLT-33" value="채팅하기" style="rounded=1;whiteSpace=wrap;html=1;" vertex="1" parent="1">
          <mxGeometry x="706.5" y="654" width="85" height="34" as="geometry" />
        </mxCell>
        <mxCell id="NmDv9-VDqmTtoh9FcEIt-2" value="header" style="rounded=0;whiteSpace=wrap;html=1;rotation=10;fontSize=19;" vertex="1" parent="1">
          <mxGeometry x="726" y="28.999999999999996" width="116" height="50" as="geometry" />
        </mxCell>
        <mxCell id="NmDv9-VDqmTtoh9FcEIt-3" value="footer" style="rounded=0;whiteSpace=wrap;html=1;rotation=10;fontSize=22;" vertex="1" parent="1">
          <mxGeometry x="714.03" y="946.22" width="110" height="49" as="geometry" />
        </mxCell>
      </root>
    </mxGraphModel>
  </diagram>
  <diagram id="bbauByTs1M5qLost4Sn7" name="tab2">
    <mxGraphModel dx="1313" dy="706" grid="0" gridSize="10" guides="1" tooltips="1" connect="1" arrows="1" fold="1" page="1" pageScale="1" pageWidth="850" pageHeight="1100" math="0" shadow="0">
      <root>
        <mxCell id="0" />
        <mxCell id="1" parent="0" />
        <mxCell id="CC3ROhd2RqxRI1ofQrqy-1" value="" style="whiteSpace=wrap;html=1;rounded=0;shadow=0;labelBackgroundColor=none;strokeColor=#000000;strokeWidth=1;fillColor=none;fontFamily=Verdana;fontSize=12;fontColor=#000000;align=center;comic=1;" vertex="1" parent="1">
          <mxGeometry x="20" y="20" width="799" height="1063" as="geometry" />
        </mxCell>
        <mxCell id="w7RhUhuScjahqpfhUQ0T-1" value="" style="line;strokeWidth=1;html=1;rounded=0;shadow=0;labelBackgroundColor=none;fillColor=none;fontFamily=Verdana;fontSize=14;fontColor=#000000;align=center;comic=1;" vertex="1" parent="1">
          <mxGeometry x="20" y="140" width="816" height="10" as="geometry" />
        </mxCell>
        <mxCell id="sE6BQhHpCk6J51JzZiEX-1" value="JustTalk" style="whiteSpace=wrap;html=1;rounded=0;shadow=0;labelBackgroundColor=none;strokeWidth=1;fontFamily=Verdana;fontSize=28;align=center;comic=1;" vertex="1" parent="1">
          <mxGeometry x="330" y="63" width="190" height="50" as="geometry" />
        </mxCell>
        <mxCell id="8khWqnRbToURa-HNo8m7-1" value="" style="whiteSpace=wrap;html=1;rounded=0;shadow=0;labelBackgroundColor=none;strokeWidth=1;fillColor=none;fontFamily=Verdana;fontSize=12;align=center;comic=1;" vertex="1" parent="1">
          <mxGeometry x="50" y="169" width="746" height="777" as="geometry" />
        </mxCell>
        <mxCell id="7wcnEx0ZOhnV4C9zth1r-1" value="" style="whiteSpace=wrap;html=1;rounded=0;shadow=0;labelBackgroundColor=none;strokeWidth=1;fillColor=none;fontFamily=Verdana;fontSize=12;align=center;comic=1;" vertex="1" parent="1">
          <mxGeometry x="41" y="986" width="757" height="57" as="geometry" />
        </mxCell>
        <mxCell id="Hf9Uahni5V3HXwWKFa2w-1" value="친구목록" style="text;html=1;points=[];align=left;verticalAlign=top;spacingTop=-4;fontSize=14;fontFamily=Verdana" vertex="1" parent="1">
          <mxGeometry x="143" y="1004.5" width="60" height="20" as="geometry" />
        </mxCell>
        <mxCell id="Hf9Uahni5V3HXwWKFa2w-2" value="대화목록" style="text;html=1;points=[];align=left;verticalAlign=top;spacingTop=-4;fontSize=14;fontFamily=Verdana" vertex="1" parent="1">
          <mxGeometry x="364.5" y="1007" width="60" height="20" as="geometry" />
        </mxCell>
        <mxCell id="Hf9Uahni5V3HXwWKFa2w-3" value="설정" style="text;html=1;points=[];align=left;verticalAlign=top;spacingTop=-4;fontSize=14;fontFamily=Verdana" vertex="1" parent="1">
          <mxGeometry x="719" y="1007" width="60" height="20" as="geometry" />
        </mxCell>
        <mxCell id="Hf9Uahni5V3HXwWKFa2w-4" value="header" style="rounded=0;whiteSpace=wrap;html=1;rotation=10;fontSize=19;" vertex="1" parent="1">
          <mxGeometry x="726" y="28.999999999999996" width="116" height="50" as="geometry" />
        </mxCell>
        <mxCell id="Hf9Uahni5V3HXwWKFa2w-5" value="footer" style="rounded=0;whiteSpace=wrap;html=1;rotation=10;fontSize=22;" vertex="1" parent="1">
          <mxGeometry x="714.03" y="946.22" width="110" height="49" as="geometry" />
        </mxCell>
        <mxCell id="85nFAiAReqnjm9Rfx92u-1" value="room 1" style="text;html=1;points=[];align=left;verticalAlign=top;spacingTop=-4;fontSize=20;fontFamily=Verdana;strokeWidth=1;" vertex="1" parent="1">
          <mxGeometry x="140" y="227" width="170" height="20" as="geometry" />
        </mxCell>
        <mxCell id="85nFAiAReqnjm9Rfx92u-2" value="room&amp;nbsp;2" style="text;html=1;points=[];align=left;verticalAlign=top;spacingTop=-4;fontSize=20;fontFamily=Verdana;strokeWidth=1;" vertex="1" parent="1">
          <mxGeometry x="140" y="281" width="170" height="20" as="geometry" />
        </mxCell>
        <mxCell id="85nFAiAReqnjm9Rfx92u-3" value="room&amp;nbsp;3" style="text;html=1;points=[];align=left;verticalAlign=top;spacingTop=-4;fontSize=20;fontFamily=Verdana;strokeWidth=1;" vertex="1" parent="1">
          <mxGeometry x="140" y="335" width="170" height="20" as="geometry" />
        </mxCell>
        <mxCell id="85nFAiAReqnjm9Rfx92u-4" value="room 4" style="text;html=1;points=[];align=left;verticalAlign=top;spacingTop=-4;fontSize=20;fontFamily=Verdana;strokeWidth=1;" vertex="1" parent="1">
          <mxGeometry x="140" y="399" width="170" height="20" as="geometry" />
        </mxCell>
        <mxCell id="85nFAiAReqnjm9Rfx92u-5" value="room&amp;nbsp;7" style="text;html=1;points=[];align=left;verticalAlign=top;spacingTop=-4;fontSize=20;fontFamily=Verdana;strokeWidth=1;" vertex="1" parent="1">
          <mxGeometry x="140" y="608" width="170" height="20" as="geometry" />
        </mxCell>
        <mxCell id="85nFAiAReqnjm9Rfx92u-6" value="room&amp;nbsp;5" style="text;html=1;points=[];align=left;verticalAlign=top;spacingTop=-4;fontSize=20;fontFamily=Verdana;strokeWidth=1;" vertex="1" parent="1">
          <mxGeometry x="140" y="459" width="170" height="20" as="geometry" />
        </mxCell>
        <mxCell id="85nFAiAReqnjm9Rfx92u-7" value="room&amp;nbsp;6" style="text;html=1;points=[];align=left;verticalAlign=top;spacingTop=-4;fontSize=20;fontFamily=Verdana;strokeWidth=1;" vertex="1" parent="1">
          <mxGeometry x="140" y="531" width="170" height="20" as="geometry" />
        </mxCell>
        <mxCell id="85nFAiAReqnjm9Rfx92u-8" value="room&amp;nbsp;8" style="text;html=1;points=[];align=left;verticalAlign=top;spacingTop=-4;fontSize=20;fontFamily=Verdana;strokeWidth=1;" vertex="1" parent="1">
          <mxGeometry x="140" y="664" width="170" height="20" as="geometry" />
        </mxCell>
        <mxCell id="85nFAiAReqnjm9Rfx92u-17" value="" style="ellipse;whiteSpace=wrap;html=1;aspect=fixed;labelBackgroundColor=none;labelBorderColor=none;fillColor=#000000;" vertex="1" parent="1">
          <mxGeometry x="75" y="232" width="18" height="18" as="geometry" />
        </mxCell>
        <mxCell id="85nFAiAReqnjm9Rfx92u-18" value="" style="ellipse;whiteSpace=wrap;html=1;aspect=fixed;labelBackgroundColor=none;labelBorderColor=none;fillColor=#000000;" vertex="1" parent="1">
          <mxGeometry x="75" y="285" width="18" height="18" as="geometry" />
        </mxCell>
        <mxCell id="85nFAiAReqnjm9Rfx92u-19" value="" style="ellipse;whiteSpace=wrap;html=1;aspect=fixed;labelBackgroundColor=none;labelBorderColor=none;fillColor=#000000;" vertex="1" parent="1">
          <mxGeometry x="75" y="345" width="18" height="18" as="geometry" />
        </mxCell>
        <mxCell id="85nFAiAReqnjm9Rfx92u-20" value="" style="ellipse;whiteSpace=wrap;html=1;aspect=fixed;labelBackgroundColor=none;labelBorderColor=none;fillColor=#000000;" vertex="1" parent="1">
          <mxGeometry x="75" y="398" width="18" height="18" as="geometry" />
        </mxCell>
        <mxCell id="85nFAiAReqnjm9Rfx92u-21" value="" style="ellipse;whiteSpace=wrap;html=1;aspect=fixed;labelBackgroundColor=none;labelBorderColor=none;fillColor=#000000;" vertex="1" parent="1">
          <mxGeometry x="72" y="467" width="18" height="18" as="geometry" />
        </mxCell>
        <mxCell id="85nFAiAReqnjm9Rfx92u-22" value="" style="ellipse;whiteSpace=wrap;html=1;aspect=fixed;labelBackgroundColor=none;labelBorderColor=none;fillColor=#000000;" vertex="1" parent="1">
          <mxGeometry x="72" y="520" width="18" height="18" as="geometry" />
        </mxCell>
        <mxCell id="85nFAiAReqnjm9Rfx92u-23" value="" style="ellipse;whiteSpace=wrap;html=1;aspect=fixed;labelBackgroundColor=none;labelBorderColor=none;fillColor=#000000;" vertex="1" parent="1">
          <mxGeometry x="75" y="613" width="18" height="18" as="geometry" />
        </mxCell>
        <mxCell id="85nFAiAReqnjm9Rfx92u-24" value="" style="ellipse;whiteSpace=wrap;html=1;aspect=fixed;labelBackgroundColor=none;labelBorderColor=none;fillColor=#000000;" vertex="1" parent="1">
          <mxGeometry x="75" y="666" width="18" height="18" as="geometry" />
        </mxCell>
        <mxCell id="85nFAiAReqnjm9Rfx92u-25" value="입장하기" style="rounded=1;whiteSpace=wrap;html=1;" vertex="1" parent="1">
          <mxGeometry x="694" y="227" width="85" height="34" as="geometry" />
        </mxCell>
        <mxCell id="85nFAiAReqnjm9Rfx92u-33" value="입장하기" style="rounded=1;whiteSpace=wrap;html=1;" vertex="1" parent="1">
          <mxGeometry x="694" y="277" width="85" height="34" as="geometry" />
        </mxCell>
        <mxCell id="85nFAiAReqnjm9Rfx92u-34" value="입장하기" style="rounded=1;whiteSpace=wrap;html=1;" vertex="1" parent="1">
          <mxGeometry x="696" y="332" width="85" height="34" as="geometry" />
        </mxCell>
        <mxCell id="85nFAiAReqnjm9Rfx92u-35" value="입장하기" style="rounded=1;whiteSpace=wrap;html=1;" vertex="1" parent="1">
          <mxGeometry x="696" y="382" width="85" height="34" as="geometry" />
        </mxCell>
        <mxCell id="85nFAiAReqnjm9Rfx92u-36" value="입장하기" style="rounded=1;whiteSpace=wrap;html=1;" vertex="1" parent="1">
          <mxGeometry x="694" y="440" width="85" height="34" as="geometry" />
        </mxCell>
        <mxCell id="85nFAiAReqnjm9Rfx92u-37" value="입장하기" style="rounded=1;whiteSpace=wrap;html=1;" vertex="1" parent="1">
          <mxGeometry x="694" y="490" width="85" height="34" as="geometry" />
        </mxCell>
        <mxCell id="85nFAiAReqnjm9Rfx92u-38" value="입장하기" style="rounded=1;whiteSpace=wrap;html=1;" vertex="1" parent="1">
          <mxGeometry x="694" y="594" width="85" height="34" as="geometry" />
        </mxCell>
        <mxCell id="85nFAiAReqnjm9Rfx92u-39" value="입장하기" style="rounded=1;whiteSpace=wrap;html=1;" vertex="1" parent="1">
          <mxGeometry x="694" y="644" width="85" height="34" as="geometry" />
        </mxCell>
      </root>
    </mxGraphModel>
  </diagram>
  <diagram id="_7W-blk_wRMV96Qxu0qD" name="tab3">
    <mxGraphModel dx="1105" dy="595" grid="0" gridSize="10" guides="1" tooltips="1" connect="1" arrows="1" fold="1" page="1" pageScale="1" pageWidth="850" pageHeight="1100" math="0" shadow="0">
      <root>
        <mxCell id="0" />
        <mxCell id="1" parent="0" />
        <mxCell id="0A_wdfPLNrtnc4olz2rZ-1" value="" style="whiteSpace=wrap;html=1;rounded=0;shadow=0;labelBackgroundColor=none;strokeColor=#000000;strokeWidth=1;fillColor=none;fontFamily=Verdana;fontSize=12;fontColor=#000000;align=center;comic=1;" vertex="1" parent="1">
          <mxGeometry x="20" y="20" width="799" height="1063" as="geometry" />
        </mxCell>
        <mxCell id="evG33vLt9yUgv7XSEpVF-1" value="" style="line;strokeWidth=1;html=1;rounded=0;shadow=0;labelBackgroundColor=none;fillColor=none;fontFamily=Verdana;fontSize=14;fontColor=#000000;align=center;comic=1;" vertex="1" parent="1">
          <mxGeometry x="20" y="140" width="816" height="10" as="geometry" />
        </mxCell>
        <mxCell id="i4wJK93R_lYRrBsEsOER-1" value="JustTalk" style="whiteSpace=wrap;html=1;rounded=0;shadow=0;labelBackgroundColor=none;strokeWidth=1;fontFamily=Verdana;fontSize=28;align=center;comic=1;" vertex="1" parent="1">
          <mxGeometry x="324.5" y="68" width="190" height="50" as="geometry" />
        </mxCell>
        <mxCell id="uZYRITA8Lx-t3NPW76qk-1" value="" style="whiteSpace=wrap;html=1;rounded=0;shadow=0;labelBackgroundColor=none;strokeWidth=1;fillColor=none;fontFamily=Verdana;fontSize=12;align=center;comic=1;" vertex="1" parent="1">
          <mxGeometry x="50" y="169" width="746" height="777" as="geometry" />
        </mxCell>
        <mxCell id="l55Ui8HzJapP7bl-HHO6-1" value="친구목록" style="text;html=1;points=[];align=left;verticalAlign=top;spacingTop=-4;fontSize=14;fontFamily=Verdana" vertex="1" parent="1">
          <mxGeometry x="143" y="1004.5" width="60" height="20" as="geometry" />
        </mxCell>
        <mxCell id="l55Ui8HzJapP7bl-HHO6-2" value="대화목록" style="text;html=1;points=[];align=left;verticalAlign=top;spacingTop=-4;fontSize=14;fontFamily=Verdana" vertex="1" parent="1">
          <mxGeometry x="364.5" y="1007" width="60" height="20" as="geometry" />
        </mxCell>
        <mxCell id="l55Ui8HzJapP7bl-HHO6-3" value="설정" style="text;html=1;points=[];align=left;verticalAlign=top;spacingTop=-4;fontSize=14;fontFamily=Verdana" vertex="1" parent="1">
          <mxGeometry x="719" y="1007" width="60" height="20" as="geometry" />
        </mxCell>
        <mxCell id="l55Ui8HzJapP7bl-HHO6-4" value="header" style="rounded=0;whiteSpace=wrap;html=1;rotation=10;fontSize=19;" vertex="1" parent="1">
          <mxGeometry x="726" y="28.999999999999996" width="116" height="50" as="geometry" />
        </mxCell>
        <mxCell id="l55Ui8HzJapP7bl-HHO6-5" value="footer" style="rounded=0;whiteSpace=wrap;html=1;rotation=10;fontSize=22;" vertex="1" parent="1">
          <mxGeometry x="714.03" y="946.22" width="110" height="49" as="geometry" />
        </mxCell>
        <mxCell id="69qVGirabIl-Am0_XAxo-1" value="" style="whiteSpace=wrap;html=1;rounded=0;shadow=0;labelBackgroundColor=none;strokeWidth=1;fillColor=none;fontFamily=Verdana;fontSize=12;align=center;comic=1;" vertex="1" parent="1">
          <mxGeometry x="41" y="986" width="757" height="57" as="geometry" />
        </mxCell>
        <mxCell id="H7zc4wqilCaNv8J-cNnL-1" value="id 검색" style="verticalLabelPosition=bottom;verticalAlign=top;html=1;shape=mxgraph.basic.rect;fillColor2=none;strokeWidth=1;size=20;indent=5;" vertex="1" parent="1">
          <mxGeometry x="83" y="209" width="524" height="44" as="geometry" />
        </mxCell>
        <mxCell id="H7zc4wqilCaNv8J-cNnL-3" value="검색" style="rounded=0;whiteSpace=wrap;html=1;" vertex="1" parent="1">
          <mxGeometry x="649" y="209.5" width="107" height="43" as="geometry" />
        </mxCell>
        <mxCell id="H7zc4wqilCaNv8J-cNnL-4" value="id 검색결과" style="text;html=1;strokeColor=none;fillColor=none;align=center;verticalAlign=middle;whiteSpace=wrap;rounded=0;" vertex="1" parent="1">
          <mxGeometry x="68" y="301" width="109" height="30" as="geometry" />
        </mxCell>
        <mxCell id="AI1q3LfDMZllz1rQFngp-1" value="name 1" style="text;html=1;points=[];align=left;verticalAlign=top;spacingTop=-4;fontSize=20;fontFamily=Verdana;strokeWidth=1;" vertex="1" parent="1">
          <mxGeometry x="131.25" y="366" width="170" height="20" as="geometry" />
        </mxCell>
        <mxCell id="AI1q3LfDMZllz1rQFngp-2" value="name 2" style="text;html=1;points=[];align=left;verticalAlign=top;spacingTop=-4;fontSize=20;fontFamily=Verdana;strokeWidth=1;" vertex="1" parent="1">
          <mxGeometry x="131.25" y="420" width="170" height="20" as="geometry" />
        </mxCell>
        <mxCell id="AI1q3LfDMZllz1rQFngp-3" value="name&amp;nbsp;3" style="text;html=1;points=[];align=left;verticalAlign=top;spacingTop=-4;fontSize=20;fontFamily=Verdana;strokeWidth=1;" vertex="1" parent="1">
          <mxGeometry x="131.25" y="474" width="170" height="20" as="geometry" />
        </mxCell>
        <mxCell id="AI1q3LfDMZllz1rQFngp-4" value="name 4" style="text;html=1;points=[];align=left;verticalAlign=top;spacingTop=-4;fontSize=20;fontFamily=Verdana;strokeWidth=1;" vertex="1" parent="1">
          <mxGeometry x="131.25" y="538" width="170" height="20" as="geometry" />
        </mxCell>
        <mxCell id="AI1q3LfDMZllz1rQFngp-5" value="name 7" style="text;html=1;points=[];align=left;verticalAlign=top;spacingTop=-4;fontSize=20;fontFamily=Verdana;strokeWidth=1;" vertex="1" parent="1">
          <mxGeometry x="131.25" y="747" width="170" height="20" as="geometry" />
        </mxCell>
        <mxCell id="AI1q3LfDMZllz1rQFngp-6" value="name 5" style="text;html=1;points=[];align=left;verticalAlign=top;spacingTop=-4;fontSize=20;fontFamily=Verdana;strokeWidth=1;" vertex="1" parent="1">
          <mxGeometry x="131.25" y="598" width="170" height="20" as="geometry" />
        </mxCell>
        <mxCell id="AI1q3LfDMZllz1rQFngp-7" value="name 6" style="text;html=1;points=[];align=left;verticalAlign=top;spacingTop=-4;fontSize=20;fontFamily=Verdana;strokeWidth=1;" vertex="1" parent="1">
          <mxGeometry x="131.25" y="670" width="170" height="20" as="geometry" />
        </mxCell>
        <mxCell id="AI1q3LfDMZllz1rQFngp-8" value="name 8" style="text;html=1;points=[];align=left;verticalAlign=top;spacingTop=-4;fontSize=20;fontFamily=Verdana;strokeWidth=1;" vertex="1" parent="1">
          <mxGeometry x="131.25" y="803" width="170" height="20" as="geometry" />
        </mxCell>
        <mxCell id="AI1q3LfDMZllz1rQFngp-9" value="message 1" style="text;html=1;points=[];align=left;verticalAlign=top;spacingTop=-4;fontSize=20;fontFamily=Verdana;strokeWidth=1;" vertex="1" parent="1">
          <mxGeometry x="391.25" y="370" width="170" height="20" as="geometry" />
        </mxCell>
        <mxCell id="AI1q3LfDMZllz1rQFngp-33" value="" style="edgeStyle=orthogonalEdgeStyle;rounded=0;orthogonalLoop=1;jettySize=auto;html=1;" edge="1" parent="1" source="AI1q3LfDMZllz1rQFngp-10" target="AI1q3LfDMZllz1rQFngp-9">
          <mxGeometry relative="1" as="geometry" />
        </mxCell>
        <mxCell id="AI1q3LfDMZllz1rQFngp-10" value="message 2" style="text;html=1;points=[];align=left;verticalAlign=top;spacingTop=-4;fontSize=20;fontFamily=Verdana;strokeWidth=1;" vertex="1" parent="1">
          <mxGeometry x="391.25" y="424" width="170" height="20" as="geometry" />
        </mxCell>
        <mxCell id="AI1q3LfDMZllz1rQFngp-11" value="message&amp;nbsp;3" style="text;html=1;points=[];align=left;verticalAlign=top;spacingTop=-4;fontSize=20;fontFamily=Verdana;strokeWidth=1;" vertex="1" parent="1">
          <mxGeometry x="391.25" y="478" width="170" height="20" as="geometry" />
        </mxCell>
        <mxCell id="AI1q3LfDMZllz1rQFngp-12" value="message&amp;nbsp;4" style="text;html=1;points=[];align=left;verticalAlign=top;spacingTop=-4;fontSize=20;fontFamily=Verdana;strokeWidth=1;" vertex="1" parent="1">
          <mxGeometry x="391.25" y="542" width="170" height="20" as="geometry" />
        </mxCell>
        <mxCell id="AI1q3LfDMZllz1rQFngp-13" value="message&amp;nbsp;7" style="text;html=1;points=[];align=left;verticalAlign=top;spacingTop=-4;fontSize=20;fontFamily=Verdana;strokeWidth=1;" vertex="1" parent="1">
          <mxGeometry x="391.25" y="751" width="170" height="20" as="geometry" />
        </mxCell>
        <mxCell id="AI1q3LfDMZllz1rQFngp-14" value="message&amp;nbsp;5" style="text;html=1;points=[];align=left;verticalAlign=top;spacingTop=-4;fontSize=20;fontFamily=Verdana;strokeWidth=1;" vertex="1" parent="1">
          <mxGeometry x="391.25" y="602" width="170" height="20" as="geometry" />
        </mxCell>
        <mxCell id="AI1q3LfDMZllz1rQFngp-15" value="message&amp;nbsp;6" style="text;html=1;points=[];align=left;verticalAlign=top;spacingTop=-4;fontSize=20;fontFamily=Verdana;strokeWidth=1;" vertex="1" parent="1">
          <mxGeometry x="391.25" y="674" width="170" height="20" as="geometry" />
        </mxCell>
        <mxCell id="AI1q3LfDMZllz1rQFngp-16" value="message&amp;nbsp;8" style="text;html=1;points=[];align=left;verticalAlign=top;spacingTop=-4;fontSize=20;fontFamily=Verdana;strokeWidth=1;" vertex="1" parent="1">
          <mxGeometry x="391.25" y="807" width="170" height="20" as="geometry" />
        </mxCell>
        <mxCell id="AI1q3LfDMZllz1rQFngp-17" value="" style="ellipse;whiteSpace=wrap;html=1;aspect=fixed;labelBackgroundColor=none;labelBorderColor=none;fillColor=#000000;" vertex="1" parent="1">
          <mxGeometry x="66.25" y="371" width="18" height="18" as="geometry" />
        </mxCell>
        <mxCell id="AI1q3LfDMZllz1rQFngp-18" value="" style="ellipse;whiteSpace=wrap;html=1;aspect=fixed;labelBackgroundColor=none;labelBorderColor=none;fillColor=#000000;" vertex="1" parent="1">
          <mxGeometry x="66.25" y="424" width="18" height="18" as="geometry" />
        </mxCell>
        <mxCell id="AI1q3LfDMZllz1rQFngp-19" value="" style="ellipse;whiteSpace=wrap;html=1;aspect=fixed;labelBackgroundColor=none;labelBorderColor=none;fillColor=#000000;" vertex="1" parent="1">
          <mxGeometry x="66.25" y="484" width="18" height="18" as="geometry" />
        </mxCell>
        <mxCell id="AI1q3LfDMZllz1rQFngp-20" value="" style="ellipse;whiteSpace=wrap;html=1;aspect=fixed;labelBackgroundColor=none;labelBorderColor=none;fillColor=#000000;" vertex="1" parent="1">
          <mxGeometry x="66.25" y="537" width="18" height="18" as="geometry" />
        </mxCell>
        <mxCell id="AI1q3LfDMZllz1rQFngp-21" value="" style="ellipse;whiteSpace=wrap;html=1;aspect=fixed;labelBackgroundColor=none;labelBorderColor=none;fillColor=#000000;" vertex="1" parent="1">
          <mxGeometry x="63.25" y="606" width="18" height="18" as="geometry" />
        </mxCell>
        <mxCell id="AI1q3LfDMZllz1rQFngp-22" value="" style="ellipse;whiteSpace=wrap;html=1;aspect=fixed;labelBackgroundColor=none;labelBorderColor=none;fillColor=#000000;" vertex="1" parent="1">
          <mxGeometry x="63.25" y="659" width="18" height="18" as="geometry" />
        </mxCell>
        <mxCell id="AI1q3LfDMZllz1rQFngp-23" value="" style="ellipse;whiteSpace=wrap;html=1;aspect=fixed;labelBackgroundColor=none;labelBorderColor=none;fillColor=#000000;" vertex="1" parent="1">
          <mxGeometry x="66.25" y="752" width="18" height="18" as="geometry" />
        </mxCell>
        <mxCell id="AI1q3LfDMZllz1rQFngp-24" value="" style="ellipse;whiteSpace=wrap;html=1;aspect=fixed;labelBackgroundColor=none;labelBorderColor=none;fillColor=#000000;" vertex="1" parent="1">
          <mxGeometry x="66.25" y="805" width="18" height="18" as="geometry" />
        </mxCell>
        <mxCell id="AI1q3LfDMZllz1rQFngp-25" value="추가" style="rounded=1;whiteSpace=wrap;html=1;" vertex="1" parent="1">
          <mxGeometry x="697.75" y="366" width="85" height="34" as="geometry" />
        </mxCell>
        <mxCell id="AI1q3LfDMZllz1rQFngp-26" value="추가" style="rounded=1;whiteSpace=wrap;html=1;" vertex="1" parent="1">
          <mxGeometry x="697.75" y="424" width="85" height="34" as="geometry" />
        </mxCell>
        <mxCell id="AI1q3LfDMZllz1rQFngp-27" value="추가" style="rounded=1;whiteSpace=wrap;html=1;" vertex="1" parent="1">
          <mxGeometry x="697.75" y="478" width="85" height="34" as="geometry" />
        </mxCell>
        <mxCell id="AI1q3LfDMZllz1rQFngp-28" value="추가" style="rounded=1;whiteSpace=wrap;html=1;" vertex="1" parent="1">
          <mxGeometry x="697.75" y="536" width="85" height="34" as="geometry" />
        </mxCell>
        <mxCell id="AI1q3LfDMZllz1rQFngp-29" value="추가" style="rounded=1;whiteSpace=wrap;html=1;" vertex="1" parent="1">
          <mxGeometry x="697.75" y="597" width="85" height="34" as="geometry" />
        </mxCell>
        <mxCell id="AI1q3LfDMZllz1rQFngp-30" value="추가" style="rounded=1;whiteSpace=wrap;html=1;" vertex="1" parent="1">
          <mxGeometry x="697.75" y="655" width="85" height="34" as="geometry" />
        </mxCell>
        <mxCell id="AI1q3LfDMZllz1rQFngp-31" value="추가" style="rounded=1;whiteSpace=wrap;html=1;" vertex="1" parent="1">
          <mxGeometry x="697.75" y="735" width="85" height="34" as="geometry" />
        </mxCell>
        <mxCell id="AI1q3LfDMZllz1rQFngp-32" value="추가" style="rounded=1;whiteSpace=wrap;html=1;" vertex="1" parent="1">
          <mxGeometry x="697.75" y="793" width="85" height="34" as="geometry" />
        </mxCell>
      </root>
    </mxGraphModel>
  </diagram>
</mxfile>
